solid OpenSCAD_Model
  facet normal 0.999048 0.0436191 0
    outer loop
      vertex 2 0 10
      vertex 1.99239 0.174311 0
      vertex 1.99239 0.174311 10
    endloop
  endfacet
  facet normal 0.999048 0.0436191 0
    outer loop
      vertex 1.99239 0.174311 0
      vertex 2 0 10
      vertex 2 0 0
    endloop
  endfacet
  facet normal 0.991445 0.130527 0
    outer loop
      vertex 1.99239 0.174311 10
      vertex 1.96962 0.347296 0
      vertex 1.96962 0.347296 10
    endloop
  endfacet
  facet normal 0.991445 0.130527 0
    outer loop
      vertex 1.96962 0.347296 0
      vertex 1.99239 0.174311 10
      vertex 1.99239 0.174311 0
    endloop
  endfacet
  facet normal 0.976296 0.21644 0
    outer loop
      vertex 1.96962 0.347296 10
      vertex 1.93185 0.517638 0
      vertex 1.93185 0.517638 10
    endloop
  endfacet
  facet normal 0.976296 0.21644 0
    outer loop
      vertex 1.93185 0.517638 0
      vertex 1.96962 0.347296 10
      vertex 1.96962 0.347296 0
    endloop
  endfacet
  facet normal 0.953717 0.300706 0
    outer loop
      vertex 1.93185 0.517638 10
      vertex 1.87939 0.68404 0
      vertex 1.87939 0.68404 10
    endloop
  endfacet
  facet normal 0.953717 0.300706 0
    outer loop
      vertex 1.87939 0.68404 0
      vertex 1.93185 0.517638 10
      vertex 1.93185 0.517638 0
    endloop
  endfacet
  facet normal 0.92388 0.382683 0
    outer loop
      vertex 1.87939 0.68404 10
      vertex 1.81262 0.845237 0
      vertex 1.81262 0.845237 10
    endloop
  endfacet
  facet normal 0.92388 0.382683 0
    outer loop
      vertex 1.81262 0.845237 0
      vertex 1.87939 0.68404 10
      vertex 1.87939 0.68404 0
    endloop
  endfacet
  facet normal 0.887011 0.461749 0
    outer loop
      vertex 1.81262 0.845237 10
      vertex 1.73205 1 0
      vertex 1.73205 1 10
    endloop
  endfacet
  facet normal 0.887011 0.461749 0
    outer loop
      vertex 1.73205 1 0
      vertex 1.81262 0.845237 10
      vertex 1.81262 0.845237 0
    endloop
  endfacet
  facet normal 0.843392 0.537299 0
    outer loop
      vertex 1.73205 1 10
      vertex 1.6383 1.14715 0
      vertex 1.6383 1.14715 10
    endloop
  endfacet
  facet normal 0.843392 0.537299 0
    outer loop
      vertex 1.6383 1.14715 0
      vertex 1.73205 1 10
      vertex 1.73205 1 0
    endloop
  endfacet
  facet normal 0.793353 0.608761 0
    outer loop
      vertex 1.6383 1.14715 10
      vertex 1.53209 1.28558 0
      vertex 1.53209 1.28558 10
    endloop
  endfacet
  facet normal 0.793353 0.608761 0
    outer loop
      vertex 1.53209 1.28558 0
      vertex 1.6383 1.14715 10
      vertex 1.6383 1.14715 0
    endloop
  endfacet
  facet normal 0.737277 0.67559 0
    outer loop
      vertex 1.53209 1.28558 10
      vertex 1.41421 1.41421 0
      vertex 1.41421 1.41421 10
    endloop
  endfacet
  facet normal 0.737277 0.67559 0
    outer loop
      vertex 1.41421 1.41421 0
      vertex 1.53209 1.28558 10
      vertex 1.53209 1.28558 0
    endloop
  endfacet
  facet normal 0.67559 0.737277 -0
    outer loop
      vertex 1.41421 1.41421 0
      vertex 1.28558 1.53209 10
      vertex 1.41421 1.41421 10
    endloop
  endfacet
  facet normal 0.67559 0.737277 0
    outer loop
      vertex 1.28558 1.53209 10
      vertex 1.41421 1.41421 0
      vertex 1.28558 1.53209 0
    endloop
  endfacet
  facet normal 0.608761 0.793353 -0
    outer loop
      vertex 1.28558 1.53209 0
      vertex 1.14715 1.6383 10
      vertex 1.28558 1.53209 10
    endloop
  endfacet
  facet normal 0.608761 0.793353 0
    outer loop
      vertex 1.14715 1.6383 10
      vertex 1.28558 1.53209 0
      vertex 1.14715 1.6383 0
    endloop
  endfacet
  facet normal 0.537299 0.843392 -0
    outer loop
      vertex 1.14715 1.6383 0
      vertex 1 1.73205 10
      vertex 1.14715 1.6383 10
    endloop
  endfacet
  facet normal 0.537299 0.843392 0
    outer loop
      vertex 1 1.73205 10
      vertex 1.14715 1.6383 0
      vertex 1 1.73205 0
    endloop
  endfacet
  facet normal 0.461749 0.887011 -0
    outer loop
      vertex 1 1.73205 0
      vertex 0.845237 1.81262 10
      vertex 1 1.73205 10
    endloop
  endfacet
  facet normal 0.461749 0.887011 0
    outer loop
      vertex 0.845237 1.81262 10
      vertex 1 1.73205 0
      vertex 0.845237 1.81262 0
    endloop
  endfacet
  facet normal 0.382683 0.92388 -0
    outer loop
      vertex 0.845237 1.81262 0
      vertex 0.68404 1.87939 10
      vertex 0.845237 1.81262 10
    endloop
  endfacet
  facet normal 0.382683 0.92388 0
    outer loop
      vertex 0.68404 1.87939 10
      vertex 0.845237 1.81262 0
      vertex 0.68404 1.87939 0
    endloop
  endfacet
  facet normal 0.300706 0.953717 -0
    outer loop
      vertex 0.68404 1.87939 0
      vertex 0.517638 1.93185 10
      vertex 0.68404 1.87939 10
    endloop
  endfacet
  facet normal 0.300706 0.953717 0
    outer loop
      vertex 0.517638 1.93185 10
      vertex 0.68404 1.87939 0
      vertex 0.517638 1.93185 0
    endloop
  endfacet
  facet normal 0.21644 0.976296 -0
    outer loop
      vertex 0.517638 1.93185 0
      vertex 0.347296 1.96962 10
      vertex 0.517638 1.93185 10
    endloop
  endfacet
  facet normal 0.21644 0.976296 0
    outer loop
      vertex 0.347296 1.96962 10
      vertex 0.517638 1.93185 0
      vertex 0.347296 1.96962 0
    endloop
  endfacet
  facet normal 0.130527 0.991445 -0
    outer loop
      vertex 0.347296 1.96962 0
      vertex 0.174311 1.99239 10
      vertex 0.347296 1.96962 10
    endloop
  endfacet
  facet normal 0.130527 0.991445 0
    outer loop
      vertex 0.174311 1.99239 10
      vertex 0.347296 1.96962 0
      vertex 0.174311 1.99239 0
    endloop
  endfacet
  facet normal 0.0436191 0.999048 -0
    outer loop
      vertex 0.174311 1.99239 0
      vertex 1.22461e-016 2 10
      vertex 0.174311 1.99239 10
    endloop
  endfacet
  facet normal 0.0436191 0.999048 0
    outer loop
      vertex 1.22461e-016 2 10
      vertex 0.174311 1.99239 0
      vertex 1.22461e-016 2 0
    endloop
  endfacet
  facet normal -0.0436191 0.999048 0
    outer loop
      vertex 1.22461e-016 2 0
      vertex -0.174311 1.99239 10
      vertex 1.22461e-016 2 10
    endloop
  endfacet
  facet normal -0.0436191 0.999048 0
    outer loop
      vertex -0.174311 1.99239 10
      vertex 1.22461e-016 2 0
      vertex -0.174311 1.99239 0
    endloop
  endfacet
  facet normal -0.130527 0.991445 0
    outer loop
      vertex -0.174311 1.99239 0
      vertex -0.347296 1.96962 10
      vertex -0.174311 1.99239 10
    endloop
  endfacet
  facet normal -0.130527 0.991445 0
    outer loop
      vertex -0.347296 1.96962 10
      vertex -0.174311 1.99239 0
      vertex -0.347296 1.96962 0
    endloop
  endfacet
  facet normal -0.21644 0.976296 0
    outer loop
      vertex -0.347296 1.96962 0
      vertex -0.517638 1.93185 10
      vertex -0.347296 1.96962 10
    endloop
  endfacet
  facet normal -0.21644 0.976296 0
    outer loop
      vertex -0.517638 1.93185 10
      vertex -0.347296 1.96962 0
      vertex -0.517638 1.93185 0
    endloop
  endfacet
  facet normal -0.300706 0.953717 0
    outer loop
      vertex -0.517638 1.93185 0
      vertex -0.68404 1.87939 10
      vertex -0.517638 1.93185 10
    endloop
  endfacet
  facet normal -0.300706 0.953717 0
    outer loop
      vertex -0.68404 1.87939 10
      vertex -0.517638 1.93185 0
      vertex -0.68404 1.87939 0
    endloop
  endfacet
  facet normal -0.382683 0.92388 0
    outer loop
      vertex -0.68404 1.87939 0
      vertex -0.845237 1.81262 10
      vertex -0.68404 1.87939 10
    endloop
  endfacet
  facet normal -0.382683 0.92388 0
    outer loop
      vertex -0.845237 1.81262 10
      vertex -0.68404 1.87939 0
      vertex -0.845237 1.81262 0
    endloop
  endfacet
  facet normal -0.461749 0.887011 0
    outer loop
      vertex -0.845237 1.81262 0
      vertex -1 1.73205 10
      vertex -0.845237 1.81262 10
    endloop
  endfacet
  facet normal -0.461749 0.887011 0
    outer loop
      vertex -1 1.73205 10
      vertex -0.845237 1.81262 0
      vertex -1 1.73205 0
    endloop
  endfacet
  facet normal -0.537299 0.843392 0
    outer loop
      vertex -1 1.73205 0
      vertex -1.14715 1.6383 10
      vertex -1 1.73205 10
    endloop
  endfacet
  facet normal -0.537299 0.843392 0
    outer loop
      vertex -1.14715 1.6383 10
      vertex -1 1.73205 0
      vertex -1.14715 1.6383 0
    endloop
  endfacet
  facet normal -0.608761 0.793353 0
    outer loop
      vertex -1.14715 1.6383 0
      vertex -1.28558 1.53209 10
      vertex -1.14715 1.6383 10
    endloop
  endfacet
  facet normal -0.608761 0.793353 0
    outer loop
      vertex -1.28558 1.53209 10
      vertex -1.14715 1.6383 0
      vertex -1.28558 1.53209 0
    endloop
  endfacet
  facet normal -0.67559 0.737277 0
    outer loop
      vertex -1.28558 1.53209 0
      vertex -1.41421 1.41421 10
      vertex -1.28558 1.53209 10
    endloop
  endfacet
  facet normal -0.67559 0.737277 0
    outer loop
      vertex -1.41421 1.41421 10
      vertex -1.28558 1.53209 0
      vertex -1.41421 1.41421 0
    endloop
  endfacet
  facet normal -0.737277 0.67559 0
    outer loop
      vertex -1.53209 1.28558 0
      vertex -1.41421 1.41421 10
      vertex -1.41421 1.41421 0
    endloop
  endfacet
  facet normal -0.737277 0.67559 0
    outer loop
      vertex -1.41421 1.41421 10
      vertex -1.53209 1.28558 0
      vertex -1.53209 1.28558 10
    endloop
  endfacet
  facet normal -0.793353 0.608761 0
    outer loop
      vertex -1.6383 1.14715 0
      vertex -1.53209 1.28558 10
      vertex -1.53209 1.28558 0
    endloop
  endfacet
  facet normal -0.793353 0.608761 0
    outer loop
      vertex -1.53209 1.28558 10
      vertex -1.6383 1.14715 0
      vertex -1.6383 1.14715 10
    endloop
  endfacet
  facet normal -0.843392 0.537299 0
    outer loop
      vertex -1.73205 1 0
      vertex -1.6383 1.14715 10
      vertex -1.6383 1.14715 0
    endloop
  endfacet
  facet normal -0.843392 0.537299 0
    outer loop
      vertex -1.6383 1.14715 10
      vertex -1.73205 1 0
      vertex -1.73205 1 10
    endloop
  endfacet
  facet normal -0.887011 0.461749 0
    outer loop
      vertex -1.81262 0.845237 0
      vertex -1.73205 1 10
      vertex -1.73205 1 0
    endloop
  endfacet
  facet normal -0.887011 0.461749 0
    outer loop
      vertex -1.73205 1 10
      vertex -1.81262 0.845237 0
      vertex -1.81262 0.845237 10
    endloop
  endfacet
  facet normal -0.92388 0.382683 0
    outer loop
      vertex -1.87939 0.68404 0
      vertex -1.81262 0.845237 10
      vertex -1.81262 0.845237 0
    endloop
  endfacet
  facet normal -0.92388 0.382683 0
    outer loop
      vertex -1.81262 0.845237 10
      vertex -1.87939 0.68404 0
      vertex -1.87939 0.68404 10
    endloop
  endfacet
  facet normal -0.953717 0.300706 0
    outer loop
      vertex -1.93185 0.517638 0
      vertex -1.87939 0.68404 10
      vertex -1.87939 0.68404 0
    endloop
  endfacet
  facet normal -0.953717 0.300706 0
    outer loop
      vertex -1.87939 0.68404 10
      vertex -1.93185 0.517638 0
      vertex -1.93185 0.517638 10
    endloop
  endfacet
  facet normal -0.976296 0.21644 0
    outer loop
      vertex -1.96962 0.347296 0
      vertex -1.93185 0.517638 10
      vertex -1.93185 0.517638 0
    endloop
  endfacet
  facet normal -0.976296 0.21644 0
    outer loop
      vertex -1.93185 0.517638 10
      vertex -1.96962 0.347296 0
      vertex -1.96962 0.347296 10
    endloop
  endfacet
  facet normal -0.991445 0.130527 0
    outer loop
      vertex -1.99239 0.174311 0
      vertex -1.96962 0.347296 10
      vertex -1.96962 0.347296 0
    endloop
  endfacet
  facet normal -0.991445 0.130527 0
    outer loop
      vertex -1.96962 0.347296 10
      vertex -1.99239 0.174311 0
      vertex -1.99239 0.174311 10
    endloop
  endfacet
  facet normal -0.999048 0.0436191 0
    outer loop
      vertex -2 2.44921e-016 0
      vertex -1.99239 0.174311 10
      vertex -1.99239 0.174311 0
    endloop
  endfacet
  facet normal -0.999048 0.0436191 0
    outer loop
      vertex -1.99239 0.174311 10
      vertex -2 2.44921e-016 0
      vertex -2 2.44921e-016 10
    endloop
  endfacet
  facet normal -0.999048 -0.0436191 0
    outer loop
      vertex -1.99239 -0.174311 0
      vertex -2 2.44921e-016 10
      vertex -2 2.44921e-016 0
    endloop
  endfacet
  facet normal -0.999048 -0.0436191 0
    outer loop
      vertex -2 2.44921e-016 10
      vertex -1.99239 -0.174311 0
      vertex -1.99239 -0.174311 10
    endloop
  endfacet
  facet normal -0.991445 -0.130527 0
    outer loop
      vertex -1.96962 -0.347296 0
      vertex -1.99239 -0.174311 10
      vertex -1.99239 -0.174311 0
    endloop
  endfacet
  facet normal -0.991445 -0.130527 0
    outer loop
      vertex -1.99239 -0.174311 10
      vertex -1.96962 -0.347296 0
      vertex -1.96962 -0.347296 10
    endloop
  endfacet
  facet normal -0.976296 -0.21644 0
    outer loop
      vertex -1.93185 -0.517638 0
      vertex -1.96962 -0.347296 10
      vertex -1.96962 -0.347296 0
    endloop
  endfacet
  facet normal -0.976296 -0.21644 0
    outer loop
      vertex -1.96962 -0.347296 10
      vertex -1.93185 -0.517638 0
      vertex -1.93185 -0.517638 10
    endloop
  endfacet
  facet normal -0.953717 -0.300706 0
    outer loop
      vertex -1.87939 -0.68404 0
      vertex -1.93185 -0.517638 10
      vertex -1.93185 -0.517638 0
    endloop
  endfacet
  facet normal -0.953717 -0.300706 0
    outer loop
      vertex -1.93185 -0.517638 10
      vertex -1.87939 -0.68404 0
      vertex -1.87939 -0.68404 10
    endloop
  endfacet
  facet normal -0.92388 -0.382683 0
    outer loop
      vertex -1.81262 -0.845237 0
      vertex -1.87939 -0.68404 10
      vertex -1.87939 -0.68404 0
    endloop
  endfacet
  facet normal -0.92388 -0.382683 0
    outer loop
      vertex -1.87939 -0.68404 10
      vertex -1.81262 -0.845237 0
      vertex -1.81262 -0.845237 10
    endloop
  endfacet
  facet normal -0.887011 -0.461749 0
    outer loop
      vertex -1.73205 -1 0
      vertex -1.81262 -0.845237 10
      vertex -1.81262 -0.845237 0
    endloop
  endfacet
  facet normal -0.887011 -0.461749 0
    outer loop
      vertex -1.81262 -0.845237 10
      vertex -1.73205 -1 0
      vertex -1.73205 -1 10
    endloop
  endfacet
  facet normal -0.843392 -0.537299 0
    outer loop
      vertex -1.6383 -1.14715 0
      vertex -1.73205 -1 10
      vertex -1.73205 -1 0
    endloop
  endfacet
  facet normal -0.843392 -0.537299 0
    outer loop
      vertex -1.73205 -1 10
      vertex -1.6383 -1.14715 0
      vertex -1.6383 -1.14715 10
    endloop
  endfacet
  facet normal -0.793353 -0.608761 0
    outer loop
      vertex -1.53209 -1.28558 0
      vertex -1.6383 -1.14715 10
      vertex -1.6383 -1.14715 0
    endloop
  endfacet
  facet normal -0.793353 -0.608761 0
    outer loop
      vertex -1.6383 -1.14715 10
      vertex -1.53209 -1.28558 0
      vertex -1.53209 -1.28558 10
    endloop
  endfacet
  facet normal -0.737277 -0.67559 0
    outer loop
      vertex -1.41421 -1.41421 0
      vertex -1.53209 -1.28558 10
      vertex -1.53209 -1.28558 0
    endloop
  endfacet
  facet normal -0.737277 -0.67559 0
    outer loop
      vertex -1.53209 -1.28558 10
      vertex -1.41421 -1.41421 0
      vertex -1.41421 -1.41421 10
    endloop
  endfacet
  facet normal -0.67559 -0.737277 0
    outer loop
      vertex -1.41421 -1.41421 0
      vertex -1.28558 -1.53209 10
      vertex -1.41421 -1.41421 10
    endloop
  endfacet
  facet normal -0.67559 -0.737277 -0
    outer loop
      vertex -1.28558 -1.53209 10
      vertex -1.41421 -1.41421 0
      vertex -1.28558 -1.53209 0
    endloop
  endfacet
  facet normal -0.608761 -0.793353 0
    outer loop
      vertex -1.28558 -1.53209 0
      vertex -1.14715 -1.6383 10
      vertex -1.28558 -1.53209 10
    endloop
  endfacet
  facet normal -0.608761 -0.793353 -0
    outer loop
      vertex -1.14715 -1.6383 10
      vertex -1.28558 -1.53209 0
      vertex -1.14715 -1.6383 0
    endloop
  endfacet
  facet normal -0.537299 -0.843392 0
    outer loop
      vertex -1.14715 -1.6383 0
      vertex -1 -1.73205 10
      vertex -1.14715 -1.6383 10
    endloop
  endfacet
  facet normal -0.537299 -0.843392 -0
    outer loop
      vertex -1 -1.73205 10
      vertex -1.14715 -1.6383 0
      vertex -1 -1.73205 0
    endloop
  endfacet
  facet normal -0.461749 -0.887011 0
    outer loop
      vertex -1 -1.73205 0
      vertex -0.845237 -1.81262 10
      vertex -1 -1.73205 10
    endloop
  endfacet
  facet normal -0.461749 -0.887011 -0
    outer loop
      vertex -0.845237 -1.81262 10
      vertex -1 -1.73205 0
      vertex -0.845237 -1.81262 0
    endloop
  endfacet
  facet normal -0.382683 -0.92388 0
    outer loop
      vertex -0.845237 -1.81262 0
      vertex -0.68404 -1.87939 10
      vertex -0.845237 -1.81262 10
    endloop
  endfacet
  facet normal -0.382683 -0.92388 -0
    outer loop
      vertex -0.68404 -1.87939 10
      vertex -0.845237 -1.81262 0
      vertex -0.68404 -1.87939 0
    endloop
  endfacet
  facet normal -0.300706 -0.953717 0
    outer loop
      vertex -0.68404 -1.87939 0
      vertex -0.517638 -1.93185 10
      vertex -0.68404 -1.87939 10
    endloop
  endfacet
  facet normal -0.300706 -0.953717 -0
    outer loop
      vertex -0.517638 -1.93185 10
      vertex -0.68404 -1.87939 0
      vertex -0.517638 -1.93185 0
    endloop
  endfacet
  facet normal -0.21644 -0.976296 0
    outer loop
      vertex -0.517638 -1.93185 0
      vertex -0.347296 -1.96962 10
      vertex -0.517638 -1.93185 10
    endloop
  endfacet
  facet normal -0.21644 -0.976296 -0
    outer loop
      vertex -0.347296 -1.96962 10
      vertex -0.517638 -1.93185 0
      vertex -0.347296 -1.96962 0
    endloop
  endfacet
  facet normal -0.130527 -0.991445 0
    outer loop
      vertex -0.347296 -1.96962 0
      vertex -0.174311 -1.99239 10
      vertex -0.347296 -1.96962 10
    endloop
  endfacet
  facet normal -0.130527 -0.991445 -0
    outer loop
      vertex -0.174311 -1.99239 10
      vertex -0.347296 -1.96962 0
      vertex -0.174311 -1.99239 0
    endloop
  endfacet
  facet normal -0.0436191 -0.999048 0
    outer loop
      vertex -0.174311 -1.99239 0
      vertex -3.67382e-016 -2 10
      vertex -0.174311 -1.99239 10
    endloop
  endfacet
  facet normal -0.0436191 -0.999048 -0
    outer loop
      vertex -3.67382e-016 -2 10
      vertex -0.174311 -1.99239 0
      vertex -3.67382e-016 -2 0
    endloop
  endfacet
  facet normal 0.0436191 -0.999048 0
    outer loop
      vertex -3.67382e-016 -2 0
      vertex 0.174311 -1.99239 10
      vertex -3.67382e-016 -2 10
    endloop
  endfacet
  facet normal 0.0436191 -0.999048 0
    outer loop
      vertex 0.174311 -1.99239 10
      vertex -3.67382e-016 -2 0
      vertex 0.174311 -1.99239 0
    endloop
  endfacet
  facet normal 0.130527 -0.991445 0
    outer loop
      vertex 0.174311 -1.99239 0
      vertex 0.347296 -1.96962 10
      vertex 0.174311 -1.99239 10
    endloop
  endfacet
  facet normal 0.130527 -0.991445 0
    outer loop
      vertex 0.347296 -1.96962 10
      vertex 0.174311 -1.99239 0
      vertex 0.347296 -1.96962 0
    endloop
  endfacet
  facet normal 0.21644 -0.976296 0
    outer loop
      vertex 0.347296 -1.96962 0
      vertex 0.517638 -1.93185 10
      vertex 0.347296 -1.96962 10
    endloop
  endfacet
  facet normal 0.21644 -0.976296 0
    outer loop
      vertex 0.517638 -1.93185 10
      vertex 0.347296 -1.96962 0
      vertex 0.517638 -1.93185 0
    endloop
  endfacet
  facet normal 0.300706 -0.953717 0
    outer loop
      vertex 0.517638 -1.93185 0
      vertex 0.68404 -1.87939 10
      vertex 0.517638 -1.93185 10
    endloop
  endfacet
  facet normal 0.300706 -0.953717 0
    outer loop
      vertex 0.68404 -1.87939 10
      vertex 0.517638 -1.93185 0
      vertex 0.68404 -1.87939 0
    endloop
  endfacet
  facet normal 0.382683 -0.92388 0
    outer loop
      vertex 0.68404 -1.87939 0
      vertex 0.845237 -1.81262 10
      vertex 0.68404 -1.87939 10
    endloop
  endfacet
  facet normal 0.382683 -0.92388 0
    outer loop
      vertex 0.845237 -1.81262 10
      vertex 0.68404 -1.87939 0
      vertex 0.845237 -1.81262 0
    endloop
  endfacet
  facet normal 0.461749 -0.887011 0
    outer loop
      vertex 0.845237 -1.81262 0
      vertex 1 -1.73205 10
      vertex 0.845237 -1.81262 10
    endloop
  endfacet
  facet normal 0.461749 -0.887011 0
    outer loop
      vertex 1 -1.73205 10
      vertex 0.845237 -1.81262 0
      vertex 1 -1.73205 0
    endloop
  endfacet
  facet normal 0.537299 -0.843392 0
    outer loop
      vertex 1 -1.73205 0
      vertex 1.14715 -1.6383 10
      vertex 1 -1.73205 10
    endloop
  endfacet
  facet normal 0.537299 -0.843392 0
    outer loop
      vertex 1.14715 -1.6383 10
      vertex 1 -1.73205 0
      vertex 1.14715 -1.6383 0
    endloop
  endfacet
  facet normal 0.608761 -0.793353 0
    outer loop
      vertex 1.14715 -1.6383 0
      vertex 1.28558 -1.53209 10
      vertex 1.14715 -1.6383 10
    endloop
  endfacet
  facet normal 0.608761 -0.793353 0
    outer loop
      vertex 1.28558 -1.53209 10
      vertex 1.14715 -1.6383 0
      vertex 1.28558 -1.53209 0
    endloop
  endfacet
  facet normal 0.67559 -0.737277 0
    outer loop
      vertex 1.28558 -1.53209 0
      vertex 1.41421 -1.41421 10
      vertex 1.28558 -1.53209 10
    endloop
  endfacet
  facet normal 0.67559 -0.737277 0
    outer loop
      vertex 1.41421 -1.41421 10
      vertex 1.28558 -1.53209 0
      vertex 1.41421 -1.41421 0
    endloop
  endfacet
  facet normal 0.737277 -0.67559 0
    outer loop
      vertex 1.41421 -1.41421 10
      vertex 1.53209 -1.28558 0
      vertex 1.53209 -1.28558 10
    endloop
  endfacet
  facet normal 0.737277 -0.67559 0
    outer loop
      vertex 1.53209 -1.28558 0
      vertex 1.41421 -1.41421 10
      vertex 1.41421 -1.41421 0
    endloop
  endfacet
  facet normal 0.793353 -0.608761 0
    outer loop
      vertex 1.53209 -1.28558 10
      vertex 1.6383 -1.14715 0
      vertex 1.6383 -1.14715 10
    endloop
  endfacet
  facet normal 0.793353 -0.608761 0
    outer loop
      vertex 1.6383 -1.14715 0
      vertex 1.53209 -1.28558 10
      vertex 1.53209 -1.28558 0
    endloop
  endfacet
  facet normal 0.843392 -0.537299 0
    outer loop
      vertex 1.6383 -1.14715 10
      vertex 1.73205 -1 0
      vertex 1.73205 -1 10
    endloop
  endfacet
  facet normal 0.843392 -0.537299 0
    outer loop
      vertex 1.73205 -1 0
      vertex 1.6383 -1.14715 10
      vertex 1.6383 -1.14715 0
    endloop
  endfacet
  facet normal 0.887011 -0.461749 0
    outer loop
      vertex 1.73205 -1 10
      vertex 1.81262 -0.845237 0
      vertex 1.81262 -0.845237 10
    endloop
  endfacet
  facet normal 0.887011 -0.461749 0
    outer loop
      vertex 1.81262 -0.845237 0
      vertex 1.73205 -1 10
      vertex 1.73205 -1 0
    endloop
  endfacet
  facet normal 0.92388 -0.382683 0
    outer loop
      vertex 1.81262 -0.845237 10
      vertex 1.87939 -0.68404 0
      vertex 1.87939 -0.68404 10
    endloop
  endfacet
  facet normal 0.92388 -0.382683 0
    outer loop
      vertex 1.87939 -0.68404 0
      vertex 1.81262 -0.845237 10
      vertex 1.81262 -0.845237 0
    endloop
  endfacet
  facet normal 0.953717 -0.300706 0
    outer loop
      vertex 1.87939 -0.68404 10
      vertex 1.93185 -0.517638 0
      vertex 1.93185 -0.517638 10
    endloop
  endfacet
  facet normal 0.953717 -0.300706 0
    outer loop
      vertex 1.93185 -0.517638 0
      vertex 1.87939 -0.68404 10
      vertex 1.87939 -0.68404 0
    endloop
  endfacet
  facet normal 0.976296 -0.21644 0
    outer loop
      vertex 1.93185 -0.517638 10
      vertex 1.96962 -0.347296 0
      vertex 1.96962 -0.347296 10
    endloop
  endfacet
  facet normal 0.976296 -0.21644 0
    outer loop
      vertex 1.96962 -0.347296 0
      vertex 1.93185 -0.517638 10
      vertex 1.93185 -0.517638 0
    endloop
  endfacet
  facet normal 0.991445 -0.130527 0
    outer loop
      vertex 1.96962 -0.347296 10
      vertex 1.99239 -0.174311 0
      vertex 1.99239 -0.174311 10
    endloop
  endfacet
  facet normal 0.991445 -0.130527 0
    outer loop
      vertex 1.99239 -0.174311 0
      vertex 1.96962 -0.347296 10
      vertex 1.96962 -0.347296 0
    endloop
  endfacet
  facet normal 0.999048 -0.0436191 0
    outer loop
      vertex 1.99239 -0.174311 10
      vertex 2 0 0
      vertex 2 0 10
    endloop
  endfacet
  facet normal 0.999048 -0.0436191 0
    outer loop
      vertex 2 0 0
      vertex 1.99239 -0.174311 10
      vertex 1.99239 -0.174311 0
    endloop
  endfacet
  facet normal 0 0 -1
    outer loop
      vertex 1.99239 -0.174311 0
      vertex 1.99239 0.174311 0
      vertex 2 0 0
    endloop
  endfacet
  facet normal 0 0 -1
    outer loop
      vertex 1.96962 -0.347296 0
      vertex 1.99239 0.174311 0
      vertex 1.99239 -0.174311 0
    endloop
  endfacet
  facet normal 0 0 -1
    outer loop
      vertex 1.96962 -0.347296 0
      vertex 1.96962 0.347296 0
      vertex 1.99239 0.174311 0
    endloop
  endfacet
  facet normal 0 0 -1
    outer loop
      vertex 1.93185 -0.517638 0
      vertex 1.96962 0.347296 0
      vertex 1.96962 -0.347296 0
    endloop
  endfacet
  facet normal 0 0 -1
    outer loop
      vertex 1.93185 -0.517638 0
      vertex 1.93185 0.517638 0
      vertex 1.96962 0.347296 0
    endloop
  endfacet
  facet normal 0 0 -1
    outer loop
      vertex 1.87939 -0.68404 0
      vertex 1.93185 0.517638 0
      vertex 1.93185 -0.517638 0
    endloop
  endfacet
  facet normal 0 0 -1
    outer loop
      vertex 1.87939 -0.68404 0
      vertex 1.87939 0.68404 0
      vertex 1.93185 0.517638 0
    endloop
  endfacet
  facet normal 0 0 -1
    outer loop
      vertex 1.81262 -0.845237 0
      vertex 1.87939 0.68404 0
      vertex 1.87939 -0.68404 0
    endloop
  endfacet
  facet normal 0 0 -1
    outer loop
      vertex 1.81262 -0.845237 0
      vertex 1.81262 0.845237 0
      vertex 1.87939 0.68404 0
    endloop
  endfacet
  facet normal 0 0 -1
    outer loop
      vertex 1.73205 -1 0
      vertex 1.81262 0.845237 0
      vertex 1.81262 -0.845237 0
    endloop
  endfacet
  facet normal 0 0 -1
    outer loop
      vertex 1.73205 -1 0
      vertex 1.73205 1 0
      vertex 1.81262 0.845237 0
    endloop
  endfacet
  facet normal 0 0 -1
    outer loop
      vertex 1.6383 -1.14715 0
      vertex 1.73205 1 0
      vertex 1.73205 -1 0
    endloop
  endfacet
  facet normal 0 0 -1
    outer loop
      vertex 1.6383 -1.14715 0
      vertex 1.6383 1.14715 0
      vertex 1.73205 1 0
    endloop
  endfacet
  facet normal 0 0 -1
    outer loop
      vertex 1.53209 -1.28558 0
      vertex 1.6383 1.14715 0
      vertex 1.6383 -1.14715 0
    endloop
  endfacet
  facet normal 0 0 -1
    outer loop
      vertex 1.53209 -1.28558 0
      vertex 1.53209 1.28558 0
      vertex 1.6383 1.14715 0
    endloop
  endfacet
  facet normal 0 0 -1
    outer loop
      vertex 1.41421 -1.41421 0
      vertex 1.53209 1.28558 0
      vertex 1.53209 -1.28558 0
    endloop
  endfacet
  facet normal 0 0 -1
    outer loop
      vertex 1.41421 -1.41421 0
      vertex 1.41421 1.41421 0
      vertex 1.53209 1.28558 0
    endloop
  endfacet
  facet normal 0 0 -1
    outer loop
      vertex 1.28558 -1.53209 0
      vertex 1.41421 1.41421 0
      vertex 1.41421 -1.41421 0
    endloop
  endfacet
  facet normal 0 0 -1
    outer loop
      vertex 1.28558 -1.53209 0
      vertex 1.28558 1.53209 0
      vertex 1.41421 1.41421 0
    endloop
  endfacet
  facet normal 0 0 -1
    outer loop
      vertex 1.14715 -1.6383 0
      vertex 1.28558 1.53209 0
      vertex 1.28558 -1.53209 0
    endloop
  endfacet
  facet normal 0 0 -1
    outer loop
      vertex 1.14715 -1.6383 0
      vertex 1.14715 1.6383 0
      vertex 1.28558 1.53209 0
    endloop
  endfacet
  facet normal 0 0 -1
    outer loop
      vertex 1 -1.73205 0
      vertex 1.14715 1.6383 0
      vertex 1.14715 -1.6383 0
    endloop
  endfacet
  facet normal 0 0 -1
    outer loop
      vertex 1 -1.73205 0
      vertex 1 1.73205 0
      vertex 1.14715 1.6383 0
    endloop
  endfacet
  facet normal 0 0 -1
    outer loop
      vertex 0.845237 -1.81262 0
      vertex 1 1.73205 0
      vertex 1 -1.73205 0
    endloop
  endfacet
  facet normal 0 0 -1
    outer loop
      vertex 0.845237 -1.81262 0
      vertex 0.845237 1.81262 0
      vertex 1 1.73205 0
    endloop
  endfacet
  facet normal 0 0 -1
    outer loop
      vertex 0.68404 -1.87939 0
      vertex 0.845237 1.81262 0
      vertex 0.845237 -1.81262 0
    endloop
  endfacet
  facet normal 0 0 -1
    outer loop
      vertex 0.68404 -1.87939 0
      vertex 0.68404 1.87939 0
      vertex 0.845237 1.81262 0
    endloop
  endfacet
  facet normal 0 0 -1
    outer loop
      vertex 0.517638 -1.93185 0
      vertex 0.68404 1.87939 0
      vertex 0.68404 -1.87939 0
    endloop
  endfacet
  facet normal 0 0 -1
    outer loop
      vertex 0.517638 -1.93185 0
      vertex 0.517638 1.93185 0
      vertex 0.68404 1.87939 0
    endloop
  endfacet
  facet normal 0 0 -1
    outer loop
      vertex 0.347296 -1.96962 0
      vertex 0.517638 1.93185 0
      vertex 0.517638 -1.93185 0
    endloop
  endfacet
  facet normal 0 0 -1
    outer loop
      vertex 0.347296 -1.96962 0
      vertex 0.347296 1.96962 0
      vertex 0.517638 1.93185 0
    endloop
  endfacet
  facet normal 0 0 -1
    outer loop
      vertex 0.174311 -1.99239 0
      vertex 0.347296 1.96962 0
      vertex 0.347296 -1.96962 0
    endloop
  endfacet
  facet normal 0 0 -1
    outer loop
      vertex 0.174311 -1.99239 0
      vertex 0.174311 1.99239 0
      vertex 0.347296 1.96962 0
    endloop
  endfacet
  facet normal 0 0 -1
    outer loop
      vertex 0.174311 -1.99239 0
      vertex 1.22461e-016 2 0
      vertex 0.174311 1.99239 0
    endloop
  endfacet
  facet normal 0 0 -1
    outer loop
      vertex -3.67382e-016 -2 0
      vertex 1.22461e-016 2 0
      vertex 0.174311 -1.99239 0
    endloop
  endfacet
  facet normal 0 0 -1
    outer loop
      vertex -0.174311 -1.99239 0
      vertex 1.22461e-016 2 0
      vertex -3.67382e-016 -2 0
    endloop
  endfacet
  facet normal 0 0 -1
    outer loop
      vertex -0.174311 -1.99239 0
      vertex -0.174311 1.99239 0
      vertex 1.22461e-016 2 0
    endloop
  endfacet
  facet normal 0 0 -1
    outer loop
      vertex -0.347296 -1.96962 0
      vertex -0.174311 1.99239 0
      vertex -0.174311 -1.99239 0
    endloop
  endfacet
  facet normal 0 0 -1
    outer loop
      vertex -0.347296 -1.96962 0
      vertex -0.347296 1.96962 0
      vertex -0.174311 1.99239 0
    endloop
  endfacet
  facet normal 0 0 -1
    outer loop
      vertex -0.517638 -1.93185 0
      vertex -0.347296 1.96962 0
      vertex -0.347296 -1.96962 0
    endloop
  endfacet
  facet normal 0 0 -1
    outer loop
      vertex -0.517638 -1.93185 0
      vertex -0.517638 1.93185 0
      vertex -0.347296 1.96962 0
    endloop
  endfacet
  facet normal 0 0 -1
    outer loop
      vertex -0.68404 -1.87939 0
      vertex -0.517638 1.93185 0
      vertex -0.517638 -1.93185 0
    endloop
  endfacet
  facet normal 0 0 -1
    outer loop
      vertex -0.68404 -1.87939 0
      vertex -0.68404 1.87939 0
      vertex -0.517638 1.93185 0
    endloop
  endfacet
  facet normal 0 0 -1
    outer loop
      vertex -0.845237 -1.81262 0
      vertex -0.68404 1.87939 0
      vertex -0.68404 -1.87939 0
    endloop
  endfacet
  facet normal 0 0 -1
    outer loop
      vertex -0.845237 -1.81262 0
      vertex -0.845237 1.81262 0
      vertex -0.68404 1.87939 0
    endloop
  endfacet
  facet normal 0 0 -1
    outer loop
      vertex -1 -1.73205 0
      vertex -0.845237 1.81262 0
      vertex -0.845237 -1.81262 0
    endloop
  endfacet
  facet normal 0 0 -1
    outer loop
      vertex -1 -1.73205 0
      vertex -1 1.73205 0
      vertex -0.845237 1.81262 0
    endloop
  endfacet
  facet normal 0 0 -1
    outer loop
      vertex -1.14715 -1.6383 0
      vertex -1 1.73205 0
      vertex -1 -1.73205 0
    endloop
  endfacet
  facet normal 0 0 -1
    outer loop
      vertex -1.14715 -1.6383 0
      vertex -1.14715 1.6383 0
      vertex -1 1.73205 0
    endloop
  endfacet
  facet normal 0 0 -1
    outer loop
      vertex -1.28558 -1.53209 0
      vertex -1.14715 1.6383 0
      vertex -1.14715 -1.6383 0
    endloop
  endfacet
  facet normal 0 0 -1
    outer loop
      vertex -1.28558 -1.53209 0
      vertex -1.28558 1.53209 0
      vertex -1.14715 1.6383 0
    endloop
  endfacet
  facet normal 0 0 -1
    outer loop
      vertex -1.41421 -1.41421 0
      vertex -1.28558 1.53209 0
      vertex -1.28558 -1.53209 0
    endloop
  endfacet
  facet normal 0 0 -1
    outer loop
      vertex -1.41421 -1.41421 0
      vertex -1.41421 1.41421 0
      vertex -1.28558 1.53209 0
    endloop
  endfacet
  facet normal 0 0 -1
    outer loop
      vertex -1.53209 -1.28558 0
      vertex -1.41421 1.41421 0
      vertex -1.41421 -1.41421 0
    endloop
  endfacet
  facet normal 0 0 -1
    outer loop
      vertex -1.53209 -1.28558 0
      vertex -1.53209 1.28558 0
      vertex -1.41421 1.41421 0
    endloop
  endfacet
  facet normal 0 0 -1
    outer loop
      vertex -1.6383 -1.14715 0
      vertex -1.53209 1.28558 0
      vertex -1.53209 -1.28558 0
    endloop
  endfacet
  facet normal 0 0 -1
    outer loop
      vertex -1.6383 -1.14715 0
      vertex -1.6383 1.14715 0
      vertex -1.53209 1.28558 0
    endloop
  endfacet
  facet normal 0 0 -1
    outer loop
      vertex -1.73205 -1 0
      vertex -1.6383 1.14715 0
      vertex -1.6383 -1.14715 0
    endloop
  endfacet
  facet normal 0 0 -1
    outer loop
      vertex -1.73205 -1 0
      vertex -1.73205 1 0
      vertex -1.6383 1.14715 0
    endloop
  endfacet
  facet normal 0 0 -1
    outer loop
      vertex -1.81262 -0.845237 0
      vertex -1.73205 1 0
      vertex -1.73205 -1 0
    endloop
  endfacet
  facet normal 0 0 -1
    outer loop
      vertex -1.81262 -0.845237 0
      vertex -1.81262 0.845237 0
      vertex -1.73205 1 0
    endloop
  endfacet
  facet normal 0 0 -1
    outer loop
      vertex -1.87939 -0.68404 0
      vertex -1.81262 0.845237 0
      vertex -1.81262 -0.845237 0
    endloop
  endfacet
  facet normal 0 0 -1
    outer loop
      vertex -1.87939 -0.68404 0
      vertex -1.87939 0.68404 0
      vertex -1.81262 0.845237 0
    endloop
  endfacet
  facet normal 0 0 -1
    outer loop
      vertex -1.93185 -0.517638 0
      vertex -1.87939 0.68404 0
      vertex -1.87939 -0.68404 0
    endloop
  endfacet
  facet normal 0 0 -1
    outer loop
      vertex -1.93185 -0.517638 0
      vertex -1.93185 0.517638 0
      vertex -1.87939 0.68404 0
    endloop
  endfacet
  facet normal 0 0 -1
    outer loop
      vertex -1.96962 -0.347296 0
      vertex -1.93185 0.517638 0
      vertex -1.93185 -0.517638 0
    endloop
  endfacet
  facet normal 0 0 -1
    outer loop
      vertex -1.96962 -0.347296 0
      vertex -1.96962 0.347296 0
      vertex -1.93185 0.517638 0
    endloop
  endfacet
  facet normal 0 0 -1
    outer loop
      vertex -1.99239 -0.174311 0
      vertex -1.96962 0.347296 0
      vertex -1.96962 -0.347296 0
    endloop
  endfacet
  facet normal 0 0 -1
    outer loop
      vertex -1.99239 -0.174311 0
      vertex -1.99239 0.174311 0
      vertex -1.96962 0.347296 0
    endloop
  endfacet
  facet normal 0 -0 -1
    outer loop
      vertex -1.99239 0.174311 0
      vertex -1.99239 -0.174311 0
      vertex -2 2.44921e-016 0
    endloop
  endfacet
  facet normal 0 0 1
    outer loop
      vertex 1.99239 0.174311 10
      vertex 1.99239 -0.174311 10
      vertex 2 0 10
    endloop
  endfacet
  facet normal 0 0 1
    outer loop
      vertex 1.96962 0.347296 10
      vertex 1.99239 -0.174311 10
      vertex 1.99239 0.174311 10
    endloop
  endfacet
  facet normal 0 0 1
    outer loop
      vertex 1.96962 0.347296 10
      vertex 1.96962 -0.347296 10
      vertex 1.99239 -0.174311 10
    endloop
  endfacet
  facet normal 0 0 1
    outer loop
      vertex 1.93185 0.517638 10
      vertex 1.96962 -0.347296 10
      vertex 1.96962 0.347296 10
    endloop
  endfacet
  facet normal 0 0 1
    outer loop
      vertex 1.93185 0.517638 10
      vertex 1.93185 -0.517638 10
      vertex 1.96962 -0.347296 10
    endloop
  endfacet
  facet normal 0 0 1
    outer loop
      vertex 1.87939 0.68404 10
      vertex 1.93185 -0.517638 10
      vertex 1.93185 0.517638 10
    endloop
  endfacet
  facet normal 0 0 1
    outer loop
      vertex 1.87939 0.68404 10
      vertex 1.87939 -0.68404 10
      vertex 1.93185 -0.517638 10
    endloop
  endfacet
  facet normal 0 0 1
    outer loop
      vertex 1.81262 0.845237 10
      vertex 1.87939 -0.68404 10
      vertex 1.87939 0.68404 10
    endloop
  endfacet
  facet normal 0 0 1
    outer loop
      vertex 1.81262 0.845237 10
      vertex 1.81262 -0.845237 10
      vertex 1.87939 -0.68404 10
    endloop
  endfacet
  facet normal 0 0 1
    outer loop
      vertex 1.73205 1 10
      vertex 1.81262 -0.845237 10
      vertex 1.81262 0.845237 10
    endloop
  endfacet
  facet normal 0 0 1
    outer loop
      vertex 1.73205 1 10
      vertex 1.73205 -1 10
      vertex 1.81262 -0.845237 10
    endloop
  endfacet
  facet normal 0 0 1
    outer loop
      vertex 1.6383 1.14715 10
      vertex 1.73205 -1 10
      vertex 1.73205 1 10
    endloop
  endfacet
  facet normal 0 0 1
    outer loop
      vertex 1.6383 1.14715 10
      vertex 1.6383 -1.14715 10
      vertex 1.73205 -1 10
    endloop
  endfacet
  facet normal 0 0 1
    outer loop
      vertex 1.53209 1.28558 10
      vertex 1.6383 -1.14715 10
      vertex 1.6383 1.14715 10
    endloop
  endfacet
  facet normal 0 0 1
    outer loop
      vertex 1.53209 1.28558 10
      vertex 1.53209 -1.28558 10
      vertex 1.6383 -1.14715 10
    endloop
  endfacet
  facet normal 0 0 1
    outer loop
      vertex 1.41421 1.41421 10
      vertex 1.53209 -1.28558 10
      vertex 1.53209 1.28558 10
    endloop
  endfacet
  facet normal 0 0 1
    outer loop
      vertex 1.41421 1.41421 10
      vertex 1.41421 -1.41421 10
      vertex 1.53209 -1.28558 10
    endloop
  endfacet
  facet normal 0 0 1
    outer loop
      vertex 1.28558 1.53209 10
      vertex 1.41421 -1.41421 10
      vertex 1.41421 1.41421 10
    endloop
  endfacet
  facet normal 0 0 1
    outer loop
      vertex 1.28558 1.53209 10
      vertex 1.28558 -1.53209 10
      vertex 1.41421 -1.41421 10
    endloop
  endfacet
  facet normal 0 0 1
    outer loop
      vertex 1.14715 1.6383 10
      vertex 1.28558 -1.53209 10
      vertex 1.28558 1.53209 10
    endloop
  endfacet
  facet normal 0 0 1
    outer loop
      vertex 1.14715 1.6383 10
      vertex 1.14715 -1.6383 10
      vertex 1.28558 -1.53209 10
    endloop
  endfacet
  facet normal 0 0 1
    outer loop
      vertex 1 1.73205 10
      vertex 1.14715 -1.6383 10
      vertex 1.14715 1.6383 10
    endloop
  endfacet
  facet normal 0 0 1
    outer loop
      vertex 1 1.73205 10
      vertex 1 -1.73205 10
      vertex 1.14715 -1.6383 10
    endloop
  endfacet
  facet normal 0 0 1
    outer loop
      vertex 0.845237 1.81262 10
      vertex 1 -1.73205 10
      vertex 1 1.73205 10
    endloop
  endfacet
  facet normal 0 0 1
    outer loop
      vertex 0.845237 1.81262 10
      vertex 0.845237 -1.81262 10
      vertex 1 -1.73205 10
    endloop
  endfacet
  facet normal 0 0 1
    outer loop
      vertex 0.68404 1.87939 10
      vertex 0.845237 -1.81262 10
      vertex 0.845237 1.81262 10
    endloop
  endfacet
  facet normal 0 0 1
    outer loop
      vertex 0.68404 1.87939 10
      vertex 0.68404 -1.87939 10
      vertex 0.845237 -1.81262 10
    endloop
  endfacet
  facet normal 0 0 1
    outer loop
      vertex 0.517638 1.93185 10
      vertex 0.68404 -1.87939 10
      vertex 0.68404 1.87939 10
    endloop
  endfacet
  facet normal 0 0 1
    outer loop
      vertex 0.517638 1.93185 10
      vertex 0.517638 -1.93185 10
      vertex 0.68404 -1.87939 10
    endloop
  endfacet
  facet normal 0 0 1
    outer loop
      vertex 0.347296 1.96962 10
      vertex 0.517638 -1.93185 10
      vertex 0.517638 1.93185 10
    endloop
  endfacet
  facet normal 0 0 1
    outer loop
      vertex 0.347296 1.96962 10
      vertex 0.347296 -1.96962 10
      vertex 0.517638 -1.93185 10
    endloop
  endfacet
  facet normal 0 0 1
    outer loop
      vertex 0.174311 1.99239 10
      vertex 0.347296 -1.96962 10
      vertex 0.347296 1.96962 10
    endloop
  endfacet
  facet normal 0 0 1
    outer loop
      vertex 0.174311 1.99239 10
      vertex 0.174311 -1.99239 10
      vertex 0.347296 -1.96962 10
    endloop
  endfacet
  facet normal 0 0 1
    outer loop
      vertex 1.22461e-016 2 10
      vertex 0.174311 -1.99239 10
      vertex 0.174311 1.99239 10
    endloop
  endfacet
  facet normal 0 0 1
    outer loop
      vertex 1.22461e-016 2 10
      vertex -3.67382e-016 -2 10
      vertex 0.174311 -1.99239 10
    endloop
  endfacet
  facet normal -0 0 1
    outer loop
      vertex -0.174311 1.99239 10
      vertex -3.67382e-016 -2 10
      vertex 1.22461e-016 2 10
    endloop
  endfacet
  facet normal 0 0 1
    outer loop
      vertex -0.174311 1.99239 10
      vertex -0.174311 -1.99239 10
      vertex -3.67382e-016 -2 10
    endloop
  endfacet
  facet normal -0 0 1
    outer loop
      vertex -0.347296 1.96962 10
      vertex -0.174311 -1.99239 10
      vertex -0.174311 1.99239 10
    endloop
  endfacet
  facet normal 0 0 1
    outer loop
      vertex -0.347296 1.96962 10
      vertex -0.347296 -1.96962 10
      vertex -0.174311 -1.99239 10
    endloop
  endfacet
  facet normal -0 0 1
    outer loop
      vertex -0.517638 1.93185 10
      vertex -0.347296 -1.96962 10
      vertex -0.347296 1.96962 10
    endloop
  endfacet
  facet normal 0 0 1
    outer loop
      vertex -0.517638 1.93185 10
      vertex -0.517638 -1.93185 10
      vertex -0.347296 -1.96962 10
    endloop
  endfacet
  facet normal -0 0 1
    outer loop
      vertex -0.68404 1.87939 10
      vertex -0.517638 -1.93185 10
      vertex -0.517638 1.93185 10
    endloop
  endfacet
  facet normal 0 0 1
    outer loop
      vertex -0.68404 1.87939 10
      vertex -0.68404 -1.87939 10
      vertex -0.517638 -1.93185 10
    endloop
  endfacet
  facet normal -0 0 1
    outer loop
      vertex -0.845237 1.81262 10
      vertex -0.68404 -1.87939 10
      vertex -0.68404 1.87939 10
    endloop
  endfacet
  facet normal 0 0 1
    outer loop
      vertex -0.845237 1.81262 10
      vertex -0.845237 -1.81262 10
      vertex -0.68404 -1.87939 10
    endloop
  endfacet
  facet normal -0 0 1
    outer loop
      vertex -1 1.73205 10
      vertex -0.845237 -1.81262 10
      vertex -0.845237 1.81262 10
    endloop
  endfacet
  facet normal 0 0 1
    outer loop
      vertex -1 1.73205 10
      vertex -1 -1.73205 10
      vertex -0.845237 -1.81262 10
    endloop
  endfacet
  facet normal -0 0 1
    outer loop
      vertex -1.14715 1.6383 10
      vertex -1 -1.73205 10
      vertex -1 1.73205 10
    endloop
  endfacet
  facet normal 0 0 1
    outer loop
      vertex -1.14715 1.6383 10
      vertex -1.14715 -1.6383 10
      vertex -1 -1.73205 10
    endloop
  endfacet
  facet normal -0 0 1
    outer loop
      vertex -1.28558 1.53209 10
      vertex -1.14715 -1.6383 10
      vertex -1.14715 1.6383 10
    endloop
  endfacet
  facet normal 0 0 1
    outer loop
      vertex -1.28558 1.53209 10
      vertex -1.28558 -1.53209 10
      vertex -1.14715 -1.6383 10
    endloop
  endfacet
  facet normal -0 0 1
    outer loop
      vertex -1.41421 1.41421 10
      vertex -1.28558 -1.53209 10
      vertex -1.28558 1.53209 10
    endloop
  endfacet
  facet normal 0 0 1
    outer loop
      vertex -1.41421 1.41421 10
      vertex -1.41421 -1.41421 10
      vertex -1.28558 -1.53209 10
    endloop
  endfacet
  facet normal -0 0 1
    outer loop
      vertex -1.53209 1.28558 10
      vertex -1.41421 -1.41421 10
      vertex -1.41421 1.41421 10
    endloop
  endfacet
  facet normal 0 0 1
    outer loop
      vertex -1.53209 1.28558 10
      vertex -1.53209 -1.28558 10
      vertex -1.41421 -1.41421 10
    endloop
  endfacet
  facet normal -0 0 1
    outer loop
      vertex -1.6383 1.14715 10
      vertex -1.53209 -1.28558 10
      vertex -1.53209 1.28558 10
    endloop
  endfacet
  facet normal 0 0 1
    outer loop
      vertex -1.6383 1.14715 10
      vertex -1.6383 -1.14715 10
      vertex -1.53209 -1.28558 10
    endloop
  endfacet
  facet normal -0 0 1
    outer loop
      vertex -1.73205 1 10
      vertex -1.6383 -1.14715 10
      vertex -1.6383 1.14715 10
    endloop
  endfacet
  facet normal 0 0 1
    outer loop
      vertex -1.73205 1 10
      vertex -1.73205 -1 10
      vertex -1.6383 -1.14715 10
    endloop
  endfacet
  facet normal -0 0 1
    outer loop
      vertex -1.81262 0.845237 10
      vertex -1.73205 -1 10
      vertex -1.73205 1 10
    endloop
  endfacet
  facet normal 0 0 1
    outer loop
      vertex -1.81262 0.845237 10
      vertex -1.81262 -0.845237 10
      vertex -1.73205 -1 10
    endloop
  endfacet
  facet normal -0 0 1
    outer loop
      vertex -1.87939 0.68404 10
      vertex -1.81262 -0.845237 10
      vertex -1.81262 0.845237 10
    endloop
  endfacet
  facet normal 0 0 1
    outer loop
      vertex -1.87939 0.68404 10
      vertex -1.87939 -0.68404 10
      vertex -1.81262 -0.845237 10
    endloop
  endfacet
  facet normal -0 0 1
    outer loop
      vertex -1.93185 0.517638 10
      vertex -1.87939 -0.68404 10
      vertex -1.87939 0.68404 10
    endloop
  endfacet
  facet normal 0 0 1
    outer loop
      vertex -1.93185 0.517638 10
      vertex -1.93185 -0.517638 10
      vertex -1.87939 -0.68404 10
    endloop
  endfacet
  facet normal -0 0 1
    outer loop
      vertex -1.96962 0.347296 10
      vertex -1.93185 -0.517638 10
      vertex -1.93185 0.517638 10
    endloop
  endfacet
  facet normal 0 0 1
    outer loop
      vertex -1.96962 0.347296 10
      vertex -1.96962 -0.347296 10
      vertex -1.93185 -0.517638 10
    endloop
  endfacet
  facet normal -0 0 1
    outer loop
      vertex -1.99239 0.174311 10
      vertex -1.96962 -0.347296 10
      vertex -1.96962 0.347296 10
    endloop
  endfacet
  facet normal 0 0 1
    outer loop
      vertex -1.99239 0.174311 10
      vertex -1.99239 -0.174311 10
      vertex -1.96962 -0.347296 10
    endloop
  endfacet
  facet normal 0 -0 1
    outer loop
      vertex -1.99239 -0.174311 10
      vertex -1.99239 0.174311 10
      vertex -2 2.44921e-016 10
    endloop
  endfacet
endsolid OpenSCAD_Model
